<?xml version="1.0" standalone="no"?>
<!DOCTYPE svg PUBLIC "-//W3C//DTD SVG 20010904//EN"
 "http://www.w3.org/TR/2001/REC-SVG-20010904/DTD/svg10.dtd">
<svg version="1.0" xmlns="http://www.w3.org/2000/svg"
 width="979.000000pt" height="278.000000pt" viewBox="0 0 979.000000 278.000000"
 preserveAspectRatio="xMidYMid meet">
<metadata>
Created by potrace 1.16, written by Peter Selinger 2001-2019
</metadata>
<g transform="translate(0.000000,278.000000) scale(0.100000,-0.100000)"
fill="#000000" stroke="none">
<path d="M2660 2217 c-22 -14 -29 -25 -25 -37 3 -10 1 -21 -4 -25 -7 -3 -8 0
-5 9 8 22 -2 20 -25 -5 -11 -12 -17 -28 -14 -37 4 -9 2 -13 -4 -9 -11 7 -43
-60 -43 -89 0 -9 -5 -12 -12 -8 -7 5 -9 2 -6 -8 4 -8 2 -21 -3 -29 -7 -11 -9
-9 -9 9 0 12 -5 22 -11 22 -5 0 -8 -4 -5 -9 3 -5 -3 -42 -13 -83 -21 -82 -21
-83 -53 -293 -21 -134 -23 -187 -23 -490 0 -328 6 -434 25 -465 17 -28 21 -1
8 66 -14 77 -18 596 -6 724 24 242 64 474 81 463 5 -3 6 4 2 18 -4 13 -4 21 1
16 7 -7 34 53 36 81 1 6 5 12 9 12 5 0 5 7 2 17 -4 10 -2 14 4 10 5 -3 16 6
24 21 21 41 105 120 126 118 45 -3 88 -86 98 -186 3 -23 9 -48 15 -58 9 -14
10 -11 5 13 -4 17 -9 50 -11 73 -2 24 -11 57 -19 72 -8 16 -15 35 -15 43 0 8
-9 26 -20 40 -25 31 -65 33 -110 4z"/>
<path d="M1790 2026 c-6 -6 -10 -20 -10 -33 0 -13 -4 -23 -10 -23 -5 0 -9 -3
-8 -7 1 -5 -12 -37 -29 -73 -89 -192 -213 -512 -213 -553 0 -8 -9 -43 -21 -78
-25 -77 -31 -104 -32 -146 0 -18 -4 -30 -9 -27 -5 3 -8 2 -7 -3 1 -4 0 -19 -4
-33 -3 -14 -11 -57 -17 -97 -14 -90 -16 -98 -34 -203 -15 -89 -18 -116 -37
-348 -10 -131 -9 -165 7 -150 3 3 9 57 14 119 5 63 14 155 20 204 6 50 13 101
14 113 2 13 8 27 15 31 6 4 9 16 5 27 -5 15 -4 16 4 4 9 -11 15 -4 32 35 12
28 23 56 24 63 1 8 7 17 12 20 11 8 29 37 46 72 7 14 17 28 22 31 5 4 5 12 1
18 -9 15 -35 -17 -28 -35 2 -6 -5 -14 -16 -17 -14 -3 -19 -10 -15 -21 3 -9 2
-16 -3 -16 -12 0 -41 -53 -36 -67 2 -6 -1 -14 -6 -18 -6 -3 -11 -15 -11 -25 0
-13 -5 -17 -14 -14 -15 6 -29 44 -16 44 5 0 11 26 14 58 11 113 18 152 28 146
5 -4 9 6 7 22 -4 49 1 75 11 69 6 -4 7 6 4 25 -5 21 -2 36 10 48 8 10 17 35
18 55 2 20 7 37 11 37 5 0 6 4 2 9 -3 5 -1 12 5 16 5 3 10 16 10 28 1 75 183
526 267 659 12 21 23 40 23 42 0 9 -40 2 -50 -8z"/>
<path d="M2105 1643 c-20 -26 -40 -47 -43 -46 -4 1 -10 17 -13 35 -6 29 -7 28
-6 -12 0 -25 -5 -56 -12 -68 -12 -23 -124 -158 -205 -247 -24 -27 -42 -53 -39
-59 3 -5 2 -6 -4 -3 -10 7 -110 -102 -105 -115 1 -5 -4 -7 -10 -6 -7 2 -12 -3
-10 -10 1 -8 -2 -11 -7 -7 -11 6 -34 -29 -24 -39 3 -3 -1 -6 -10 -6 -11 0 -14
-5 -10 -17 4 -10 2 -14 -4 -10 -6 4 -14 0 -17 -9 -8 -21 -8 -24 2 -24 12 0 55
61 55 77 0 7 3 11 6 8 7 -8 91 77 85 87 -3 4 0 8 5 8 6 0 11 7 11 16 0 8 4 13
9 10 13 -8 54 41 46 55 -5 8 -4 10 3 5 14 -8 74 49 158 149 32 39 64 69 72 69
7 -1 11 0 8 3 -8 8 10 39 67 116 34 47 47 71 40 78 -8 8 -22 -5 -48 -38z"/>
</g>
</svg>
